<svg width="500" height="500" viewBox="0 0 500 500" fill="none" xmlns="http://www.w3.org/2000/svg">
<path fill-rule="evenodd" clip-rule="evenodd" d="M442.681 393.893C452.444 384.13 452.444 368.301 442.681 358.538L334.144 250.002L442.681 141.465C452.444 131.702 452.444 115.873 442.681 106.11L393.893 57.3223C384.13 47.5592 368.301 47.5592 358.538 57.3223L250.002 165.859L141.465 57.3223C131.702 47.5592 115.873 47.5592 106.11 57.3223L57.3223 106.11C47.5592 115.873 47.5592 131.702 57.3223 141.465L165.859 250.002L57.3224 358.538C47.5593 368.301 47.5593 384.13 57.3224 393.893L106.11 442.681C115.873 452.444 131.702 452.444 141.465 442.681L250.002 334.144L358.538 442.681C368.301 452.444 384.13 452.444 393.893 442.681L442.681 393.893Z" fill="#2CC6BE"/>
</svg>
