<svg width="200" height="200" viewBox="0 0 200 200" fill="none" xmlns="http://www.w3.org/2000/svg">
<path d="M130.029 88.8538L130.042 88.854H130.055L165.41 88.854C168.018 88.8536 170.518 87.8176 172.362 85.9739C174.206 84.1301 175.242 81.6296 175.242 79.0221L175.242 43.6666C175.242 41.0589 174.206 38.5584 172.362 36.7146C170.518 34.8709 168.018 33.8349 165.41 33.8345H165.41C162.803 33.8349 160.302 34.8709 158.458 36.7146C156.615 38.5584 155.579 41.0589 155.578 43.6664V55.2834L148.793 48.4985C120.795 20.5005 74.4964 20.5005 46.4985 48.4985C18.5005 76.4964 18.5005 122.795 46.4985 150.793C74.4964 178.791 120.795 178.791 148.793 150.793C150.637 148.949 151.673 146.448 151.673 143.84C151.673 141.232 150.637 138.731 148.793 136.887C146.949 135.043 144.448 134.007 141.84 134.007C139.232 134.007 136.731 135.043 134.887 136.887C114.566 157.208 80.7259 157.208 60.4049 136.887C40.0839 116.566 40.0839 82.7259 60.4049 62.4049C80.7259 42.0839 114.566 42.0839 134.887 62.4049L141.672 69.1898H130.055H130.042L130.029 69.1901C127.451 69.2349 124.994 70.2904 123.186 72.1294C121.379 73.9683 120.366 76.4435 120.366 79.0219C120.366 81.6003 121.379 84.0755 123.186 85.9144C124.994 87.7534 127.451 88.809 130.029 88.8538Z" fill="#192A32" stroke="#192A32" stroke-width="3"/>
</svg>
