<svg width="1000" height="500" viewBox="0 0 1000 500" fill="none" xmlns="http://www.w3.org/2000/svg">
<path fill-rule="evenodd" clip-rule="evenodd" d="M418.893 57.3223C409.13 47.5592 393.301 47.5592 383.538 57.3223L275.002 165.859L166.465 57.3223C156.702 47.5592 140.873 47.5592 131.11 57.3223L82.3223 106.11C72.5592 115.873 72.5592 131.702 82.3223 141.465L190.859 250.002L82.3224 358.538C72.5593 368.301 72.5593 384.13 82.3224 393.893L131.11 442.681C140.873 452.444 156.702 452.444 166.465 442.681L275.002 334.144L383.538 442.681C393.301 452.444 409.13 452.444 418.893 442.681L467.681 393.893C477.444 384.13 477.444 368.301 467.681 358.538L359.144 250.002L467.681 141.465C477.444 131.702 477.444 115.873 467.681 106.11L418.893 57.3223Z" fill="#D9D9D9"/>
<path fill-rule="evenodd" clip-rule="evenodd" d="M725.003 450C835.46 450 925.003 360.457 925.003 250C925.003 139.543 835.46 50 725.003 50C614.546 50 525.003 139.543 525.003 250C525.003 360.457 614.546 450 725.003 450ZM725.003 335C771.947 335 810.003 296.944 810.003 250C810.003 203.056 771.947 165 725.003 165C678.059 165 640.003 203.056 640.003 250C640.003 296.944 678.059 335 725.003 335Z" fill="#D9D9D9"/>
</svg>
